<svg version="1.1" xmlns="http://www.w3.org/2000/svg" viewBox="0 0 477.9999999999999 1658" width="477.9999999999999" height="1658">
  <!-- svg-source:excalidraw -->
  
  <defs>
    <style class="style-fonts">
      @font-face {
        font-family: "Virgil";
        src: url("https://excalidraw.com/Virgil.woff2");
      }
      @font-face {
        font-family: "Cascadia";
        src: url("https://excalidraw.com/Cascadia.woff2");
      }
    </style>
  </defs>
  <g transform="translate(10 10) rotate(0 228.99999999999994 819)"><text x="0" y="575" font-family="Virgil, Segoe UI Emoji" font-size="647.6559630952083px" fill="#343a40" text-anchor="start" style="white-space: pre;" direction="ltr">Q</text><text x="0" y="1394" font-family="Virgil, Segoe UI Emoji" font-size="647.6559630952083px" fill="#343a40" text-anchor="start" style="white-space: pre;" direction="ltr"></text></g><g transform="translate(248.05216286508187 409.3624001264841) rotate(0 -14.749905031175672 -36.94420510166617)" stroke="none"><path fill="#343a40" d="M 9.18,2.23 Q 9.18,2.23 8.98,3.82 8.78,5.41 7.70,9.78 6.63,14.14 4.20,18.32 1.77,22.51 -1.87,24.92 -5.52,27.33 -10.06,28.81 -14.60,30.30 -19.21,31.18 -23.82,32.06 -28.09,32.73 -32.37,33.40 -36.76,33.23 -41.14,33.06 -45.33,32.24 -49.53,31.41 -53.56,29.87 -57.60,28.34 -61.84,26.34 -66.07,24.34 -69.76,21.12 -73.44,17.89 -76.18,14.16 -78.92,10.42 -81.58,7.07 -84.24,3.72 -86.65,-0.29 -89.05,-4.31 -91.30,-9.14 -93.55,-13.97 -95.09,-18.97 -96.64,-23.96 -97.05,-28.30 -97.46,-32.63 -96.96,-37.72 -96.46,-42.81 -95.25,-47.36 -94.03,-51.91 -92.69,-56.30 -91.34,-60.68 -90.02,-65.01 -88.70,-69.33 -85.83,-73.75 -82.96,-78.17 -80.07,-81.41 -77.19,-84.64 -73.02,-88.13 -68.85,-91.61 -64.70,-94.02 -60.56,-96.43 -56.73,-99.02 -52.90,-101.60 -48.75,-103.68 -44.59,-105.76 -38.58,-107.21 -32.57,-108.66 -27.82,-109.10 -23.07,-109.54 -17.69,-109.53 -12.32,-109.53 -7.30,-109.43 -2.28,-109.34 2.86,-109.30 8.00,-109.26 13.71,-109.25 19.41,-109.24 25.08,-108.63 30.74,-108.02 35.17,-106.47 39.59,-104.92 43.25,-102.49 46.91,-100.07 50.78,-96.48 54.64,-92.89 57.61,-88.64 60.58,-84.39 62.93,-79.52 65.27,-74.64 66.28,-70.11 67.30,-65.58 67.76,-60.88 68.23,-56.18 68.25,-51.75 68.27,-47.33 68.00,-42.33 67.72,-37.32 66.30,-33.16 64.88,-29.00 62.32,-24.57 59.76,-20.13 56.64,-16.54 53.52,-12.95 50.13,-9.92 46.74,-6.89 43.03,-4.21 39.33,-1.53 35.91,1.02 32.49,3.57 28.12,6.99 23.75,10.42 18.76,13.32 13.78,16.22 9.46,18.01 5.14,19.79 1.60,22.41 -1.93,25.03 -5.86,26.79 -9.79,28.56 -14.00,29.35 -18.21,30.15 -20.01,30.06 -21.81,29.96 -24.23,30.79 -26.65,31.62 -29.21,31.63 -31.76,31.65 -34.19,30.84 -36.62,30.04 -38.66,28.50 -40.71,26.96 -42.15,24.86 -43.60,22.75 -44.29,20.29 -44.99,17.83 -44.86,15.27 -44.74,12.72 -43.80,10.34 -42.87,7.96 -41.22,6.00 -39.58,4.05 -37.39,2.72 -35.21,1.39 -32.71,0.83 -30.22,0.26 -27.68,0.53 -25.13,0.79 -22.81,1.85 -20.48,2.92 -18.62,4.67 -16.75,6.41 -15.54,8.67 -14.34,10.92 -13.91,13.44 -13.48,15.96 -13.89,18.49 -14.29,21.01 -15.47,23.28 -16.66,25.54 -18.51,27.31 -20.35,29.08 -22.67,30.16 -24.99,31.25 -27.53,31.53 -30.07,31.82 -32.57,31.29 -35.07,30.75 -37.26,29.44 -39.46,28.13 -41.12,26.19 -42.79,24.25 -43.75,21.88 -44.70,19.51 -44.85,16.96 -45.01,14.41 -44.33,11.94 -43.66,9.47 -42.24,7.35 -40.81,5.23 -38.78,3.67 -36.76,2.11 -36.76,2.11 -36.76,2.12 -29.35,1.02 -21.95,-0.07 -18.06,-2.17 -14.17,-4.26 -10.44,-6.75 -6.71,-9.25 -2.25,-10.95 2.21,-12.65 5.64,-15.38 9.07,-18.12 12.77,-20.68 16.47,-23.23 20.15,-26.07 23.84,-28.91 27.70,-31.92 31.56,-34.93 34.38,-38.68 37.21,-42.44 37.22,-46.88 37.23,-51.32 36.99,-56.04 36.76,-60.76 35.51,-64.99 34.26,-69.22 31.04,-72.67 27.82,-76.12 23.61,-77.44 19.41,-78.77 13.71,-78.76 8.00,-78.75 2.86,-78.71 -2.28,-78.67 -7.30,-78.58 -12.32,-78.48 -17.50,-78.44 -22.68,-78.40 -27.12,-77.78 -31.55,-77.15 -35.39,-75.13 -39.22,-73.11 -43.00,-70.61 -46.77,-68.11 -50.86,-65.65 -54.94,-63.19 -57.69,-59.44 -60.44,-55.68 -61.83,-51.66 -63.23,-47.65 -64.44,-43.53 -65.65,-39.40 -66.27,-35.14 -66.89,-30.87 -65.99,-26.65 -65.08,-22.43 -62.76,-18.14 -60.44,-13.84 -57.82,-10.29 -55.19,-6.74 -52.02,-2.73 -48.84,1.28 -45.03,3.17 -41.22,5.07 -36.83,6.31 -32.43,7.55 -28.10,6.98 -23.78,6.42 -19.20,7.26 -14.63,8.11 -12.45,4.44 -10.28,0.77 -9.73,-0.72 -9.18,-2.23 -8.78,-3.30 -8.38,-4.36 -7.74,-5.30 -7.09,-6.24 -6.24,-7.00 -5.39,-7.76 -4.38,-8.29 -3.38,-8.83 -2.27,-9.10 -1.16,-9.38 -0.02,-9.38 1.11,-9.39 2.21,-9.12 3.32,-8.85 4.33,-8.32 5.34,-7.79 6.20,-7.04 7.05,-6.29 7.70,-5.35 8.36,-4.42 8.76,-3.35 9.17,-2.29 9.31,-1.16 9.45,-0.02 9.32,1.10 9.18,2.23 9.18,2.23 L 9.18,2.23 Z"></path></g><g transform="translate(231.6712945295285 368.977457136524) rotate(0 0.00004999999998744897 0.00004999999998744897)" stroke="none"><path fill="#343a40" d="M 6.28,-6.28 Q 6.28,-6.28 7.11,-5.11 7.95,-3.94 8.37,-2.57 8.80,-1.19 8.76,0.23 8.72,1.67 8.22,3.02 7.73,4.37 6.83,5.49 5.93,6.61 4.72,7.38 3.50,8.15 2.11,8.50 0.72,8.85 -0.71,8.73 -2.14,8.61 -3.46,8.05 -4.78,7.48 -5.85,6.52 -6.92,5.56 -7.63,4.31 -8.33,3.06 -8.60,1.65 -8.87,0.23 -8.68,-1.18 -8.49,-2.60 -7.85,-3.89 -7.21,-5.18 -6.19,-6.19 -5.18,-7.21 -3.89,-7.85 -2.60,-8.49 -1.18,-8.68 0.24,-8.87 1.65,-8.60 3.06,-8.33 4.31,-7.62 5.56,-6.92 6.52,-5.85 7.48,-4.78 8.05,-3.46 8.62,-2.14 8.73,-0.70 8.85,0.72 8.50,2.11 8.15,3.51 7.38,4.72 6.61,5.93 5.49,6.83 4.36,7.73 3.02,8.22 1.67,8.72 0.23,8.76 -1.20,8.80 -2.57,8.37 -3.94,7.95 -5.11,7.11 -6.28,6.27 -6.28,6.28 -6.28,6.28 -6.94,5.43 -7.60,4.59 -8.04,3.61 -8.48,2.64 -8.67,1.58 -8.86,0.53 -8.80,-0.53 -8.73,-1.60 -8.41,-2.62 -8.09,-3.64 -7.54,-4.56 -6.99,-5.47 -6.23,-6.23 -5.47,-6.99 -4.56,-7.54 -3.64,-8.10 -2.62,-8.41 -1.60,-8.73 -0.53,-8.80 0.53,-8.86 1.59,-8.67 2.64,-8.48 3.61,-8.04 4.59,-7.60 5.43,-6.94 6.28,-6.28 6.28,-6.28 L 6.28,-6.28 Z"></path></g></svg>