<svg version="1.1" xmlns="http://www.w3.org/2000/svg" viewBox="0 0 272.15453895852545 413.99146712269606" width="544.3090779170509" height="827.9829342453921">
  <!-- svg-source:excalidraw -->
  
  <defs>
    <style class="style-fonts">
      @font-face {
        font-family: "Virgil";
        src: url("https://excalidraw.com/Virgil.woff2");
      }
      @font-face {
        font-family: "Cascadia";
        src: url("https://excalidraw.com/Cascadia.woff2");
      }
    </style>
  </defs>
  <g transform="translate(10 10) rotate(0 126.07726947926272 196.99573356134803)"><text x="0" y="274.99146712269606" font-family="Virgil, Segoe UI Emoji" font-size="315.1931736981568px" fill="#000000" text-anchor="start" style="white-space: pre;" direction="ltr">Q</text></g><g transform="translate(126.74753866850676 199.7927544136705) rotate(0 -7.258091200239505 -16.128992386533405)" stroke="none"><path fill="#000000" d="M 4.50,1.56 Q 4.50,1.56 4.34,2.27 4.18,2.97 4.13,5.14 4.07,7.31 3.83,9.82 3.60,12.32 2.62,14.42 1.64,16.51 0.02,18.26 -1.60,20.00 -3.62,20.75 -5.64,21.51 -7.98,21.79 -10.33,22.08 -12.55,22.17 -14.77,22.26 -17.01,22.10 -19.26,21.95 -21.57,21.25 -23.89,20.56 -26.05,19.59 -28.21,18.63 -30.14,17.50 -32.07,16.37 -33.95,14.77 -35.84,13.17 -37.14,11.25 -38.44,9.32 -39.56,7.11 -40.68,4.90 -41.38,2.24 -42.08,-0.40 -42.42,-2.86 -42.76,-5.33 -42.83,-7.56 -42.89,-9.80 -43.07,-12.34 -43.26,-14.88 -43.46,-17.05 -43.67,-19.22 -43.63,-21.75 -43.60,-24.29 -43.23,-27.18 -42.87,-30.07 -42.48,-32.32 -42.08,-34.57 -41.16,-36.80 -40.25,-39.03 -38.99,-40.78 -37.73,-42.54 -35.98,-44.24 -34.23,-45.95 -31.67,-47.19 -29.12,-48.44 -26.74,-49.31 -24.36,-50.18 -22.04,-50.97 -19.71,-51.77 -17.13,-52.48 -14.55,-53.20 -12.26,-53.81 -9.97,-54.42 -7.76,-54.92 -5.54,-55.41 -3.36,-55.41 -1.17,-55.42 1.12,-55.31 3.42,-55.21 5.85,-54.60 8.28,-53.99 10.60,-52.97 12.92,-51.94 15.64,-50.33 18.37,-48.71 20.33,-47.28 22.28,-45.86 23.97,-44.05 25.66,-42.24 26.74,-39.83 27.81,-37.41 28.38,-35.35 28.96,-33.29 29.09,-30.93 29.22,-28.56 29.05,-25.23 28.88,-21.91 28.43,-19.37 27.98,-16.84 26.91,-14.46 25.84,-12.07 24.63,-10.22 23.43,-8.36 22.02,-6.76 20.60,-5.16 18.86,-3.51 17.13,-1.86 15.60,-0.19 14.08,1.47 12.35,2.72 10.62,3.98 10.44,4.54 10.26,5.10 9.37,6.01 8.47,6.92 7.32,7.49 6.18,8.07 4.92,8.25 3.65,8.43 2.39,8.19 1.14,7.96 0.02,7.33 -1.08,6.71 -1.94,5.76 -2.80,4.82 -3.31,3.65 -3.82,2.47 -3.94,1.20 -4.05,-0.06 -3.74,-1.30 -3.44,-2.55 -2.76,-3.63 -2.08,-4.71 -1.08,-5.51 -0.09,-6.32 1.10,-6.77 2.29,-7.21 3.57,-7.26 4.85,-7.30 6.07,-6.93 7.30,-6.56 8.34,-5.82 9.38,-5.08 10.13,-4.04 10.88,-3.01 11.26,-1.79 11.65,-0.57 11.62,0.70 11.59,1.98 11.15,3.18 10.72,4.38 9.92,5.38 9.13,6.38 8.06,7.07 6.98,7.77 5.74,8.08 4.50,8.40 3.23,8.30 1.95,8.20 0.78,7.70 -0.39,7.21 -1.34,6.36 -2.30,5.51 -2.94,4.40 -3.57,3.29 -3.82,2.04 -4.06,0.78 -3.90,-0.48 -3.73,-1.74 -3.17,-2.89 -2.61,-4.04 -2.61,-4.04 -2.61,-4.04 -1.54,-5.35 -0.47,-6.66 1.58,-8.50 3.64,-10.34 5.21,-11.95 6.79,-13.55 8.67,-15.45 10.55,-17.36 11.85,-19.26 13.14,-21.16 13.41,-23.81 13.68,-26.46 13.66,-28.61 13.65,-30.75 12.68,-32.67 11.72,-34.58 9.64,-35.96 7.56,-37.35 5.24,-38.43 2.91,-39.52 0.37,-39.72 -2.16,-39.91 -4.71,-39.55 -7.26,-39.19 -9.40,-38.60 -11.55,-38.00 -14.29,-37.09 -17.04,-36.17 -19.21,-35.52 -21.38,-34.87 -23.43,-33.96 -25.49,-33.05 -26.51,-31.14 -27.53,-29.22 -27.84,-26.61 -28.16,-23.99 -28.23,-21.37 -28.31,-18.76 -28.03,-16.50 -27.75,-14.25 -27.72,-11.81 -27.70,-9.37 -27.57,-7.00 -27.44,-4.63 -27.14,-2.51 -26.85,-0.40 -25.75,1.71 -24.66,3.83 -22.81,5.03 -20.97,6.23 -18.86,7.36 -16.74,8.48 -14.44,8.57 -12.15,8.66 -9.74,8.59 -7.33,8.51 -6.99,6.39 -6.65,4.27 -5.89,2.00 -5.12,-0.26 -4.81,-0.91 -4.50,-1.56 -4.25,-2.08 -3.99,-2.60 -3.62,-3.04 -3.25,-3.48 -2.79,-3.82 -2.33,-4.16 -1.79,-4.38 -1.26,-4.59 -0.69,-4.68 -0.12,-4.76 0.44,-4.71 1.01,-4.66 1.55,-4.47 2.10,-4.28 2.58,-3.96 3.06,-3.65 3.45,-3.23 3.85,-2.81 4.13,-2.31 4.41,-1.81 4.56,-1.25 4.71,-0.70 4.73,-0.12 4.74,0.44 4.62,1.00 4.50,1.56 4.50,1.56 L 4.50,1.56 Z"></path></g><g transform="translate(115.62627677878902 178.2818225465644) rotate(0 0.3778566986725309 1.0172972428120985)" stroke="none"><path fill="#000000" d="M 4.26,-1.73 Q 4.26,-1.73 4.65,-0.69 5.05,0.35 5.20,1.08 5.36,1.81 5.27,2.55 5.19,3.29 4.87,3.97 4.55,4.64 4.04,5.18 3.52,5.72 2.86,6.07 2.20,6.41 1.46,6.53 0.72,6.64 -0.01,6.52 -0.74,6.39 -1.40,6.04 -2.06,5.68 -2.57,5.14 -3.08,4.59 -3.38,3.91 -3.69,3.23 -3.77,2.49 -3.84,1.75 -3.68,1.02 -3.51,0.29 -3.13,-0.33 -2.74,-0.97 -2.16,-1.45 -1.59,-1.93 -0.90,-2.20 -0.20,-2.47 0.53,-2.51 1.28,-2.54 2.00,-2.34 2.72,-2.13 3.33,-1.71 3.95,-1.29 4.39,-0.69 4.84,-0.09 5.08,0.60 5.31,1.31 5.30,2.06 5.30,2.81 5.06,3.51 4.81,4.22 4.36,4.81 3.90,5.40 3.28,5.82 2.66,6.23 1.94,6.42 1.22,6.62 0.47,6.57 -0.26,6.53 -0.95,6.25 -1.64,5.97 -2.21,5.48 -2.78,4.99 -3.16,4.35 -3.54,3.71 -3.54,3.71 -3.54,3.71 -3.90,2.72 -4.26,1.73 -4.40,1.20 -4.55,0.66 -4.56,0.11 -4.58,-0.44 -4.46,-0.98 -4.34,-1.52 -4.09,-2.02 -3.84,-2.52 -3.49,-2.94 -3.13,-3.36 -2.68,-3.69 -2.23,-4.02 -1.72,-4.23 -1.20,-4.43 -0.66,-4.52 -0.11,-4.60 0.44,-4.54 0.99,-4.49 1.51,-4.30 2.03,-4.12 2.50,-3.82 2.96,-3.51 3.34,-3.11 3.72,-2.70 3.99,-2.22 4.26,-1.73 4.26,-1.73 L 4.26,-1.73 Z"></path></g></svg>