<?xml version="1.0" encoding="UTF-8"?><svg id="Capa_2" xmlns="http://www.w3.org/2000/svg" viewBox="0 0 934.57 1149.46"><defs><style>.cls-1{fill:#293446;}</style></defs><g id="Capa_1-2"><g><polygon class="cls-1" points="127.3 728.52 107.43 731.46 93.04 733.58 85.49 769.99 74.19 824.48 65.27 867.52 38.65 741.61 35.11 742.13 3.24 746.84 0 934.79 25.69 931 28.24 799.85 55.32 926.62 75.92 923.58 78.98 908.14 87.57 864.82 96.26 820.98 102.53 789.35 103.71 844.39 104.97 903.31 105.31 919.24 112.99 918.11 130.77 915.48 130.55 903.52 129.37 840.09 127.3 728.52"/><path class="cls-1" d="M161.3,768.73l-11.23,57.8-8.33,42.86-7.78,40.06-1.11,5.72,4.14-.61,27.69-4.09,.34-.05,6.19-35.99,1.45-8.42,21.4-3.16,11.24-1.66,4.96,28.23,2.45,13.95,6.85-1.01,24.86-3.67-37.49-181.94-36.57,5.4-9.05,46.56Zm27.56-5.55l12.73,76.81-17.59,2.6-7.87,1.16,2.27-14.37,10.46-66.2Z"/><polygon class="cls-1" points="269.86 707.48 246.03 711 246.03 898.47 275.19 894.16 275.19 782.14 321.01 887.4 343.7 884.05 343.7 696.58 315.46 700.74 315.46 807.67 269.86 707.48"/><polygon class="cls-1" points="462.89 866.45 462.89 678.98 428.64 684.04 428.64 762.5 390.45 768.13 390.45 689.67 356.43 694.7 356.43 882.17 390.45 877.15 390.45 792.44 428.64 786.8 428.64 871.51 462.89 866.45"/><path class="cls-1" d="M503.39,673l-37.49,193.01,32.17-4.75,7.64-44.41,32.63-4.82,7.41,42.19,31.71-4.68-37.49-181.94-36.57,5.4Zm5.79,121.58l12.73-80.57,12.73,76.81-25.46,3.76Z"/><polygon class="cls-1" points="707.52 830.33 707.52 668.09 736.92 663.75 736.92 638.52 653.6 650.82 653.6 650.82 560.1 664.63 560.1 689.85 589.95 685.45 589.95 847.69 624.2 842.63 624.2 680.39 643.42 677.55 643.42 677.55 673.27 673.15 673.27 835.39 707.52 830.33"/><path class="cls-1" d="M763.54,778.78l8.07-1.19,24.57-3.63,.99,5.65,6.41,36.54,9.98-1.47,21.73-3.21-10.56-51.26-26.93-130.67-36.57,5.4-37.49,193.01,32.17-4.75,7.64-44.41Zm16.2-102.84l6.51,39.29,6.22,37.52-17.15,2.53-8.31,1.23,12.73-80.57Z"/><polygon class="cls-1" points="906.33 613.51 906.33 720.44 900.12 706.78 866.03 631.86 860.74 620.24 836.9 623.76 836.9 715.23 836.9 811.23 841.1 810.61 864.75 807.12 866.06 806.93 866.06 800.99 866.06 694.91 874.81 715 897.32 766.7 911.89 800.16 934.57 796.81 934.57 609.34 906.33 613.51"/><path class="cls-1" d="M60.03,701.83l407.26-60.13,385.77-56.95,25.51-3.77,56-8.27v-19.45l-62.56,9.24c-18.28-48-44.83-91.92-77.94-129.99v-66.67h-43.72v-42.67h-48.95v-45.03h-14.92v-23.82h-59.16v25.13h-13.87v103.14h-25.92V146.73h-23.43v-22.77h-14.53v-25.79h-11.39L532.29,0l-5.76,98.04h-12.7v25.92h-15.58v23.56h-21.99v38.74h-82.2v446.8l-13.44,1.98V323.6h-116.23v-38.22h-16.4v-11.23h-12.39l-5.58-45.66-4.19,45.55h-13.96v11.52h-15.88v120.42h-55.5v26.56c-59.88,68.84-98.36,156.78-105.09,253.47l-35.41,5.23v19.45l34.47-5.09,25.56-3.77Zm782.78-143.94c1.18,2.79,2.32,5.6,3.44,8.41l-52.18,7.7v-101.09c19.58,26.2,35.9,54.61,48.74,84.97Zm-146.99-205.31h30.54v35.6h48.52v19.42h-53.4v12.04h53.4v8.77h-53.4v12.04h53.4v8.77h-53.4v12.04h53.4v8.77h-53.4v12.04h53.4v8.77h-53.4v12.04h53.4v8.77h-53.4v12.04h53.4v8.77h-53.4v12.04h53.4v8.77h-53.4v12.04h53.4v11.54l-79.06,11.67v-235.93Zm-47.12-46.07h30.54v284.45l-30.54,4.51V306.5Zm-59.69,160.91h23.21v133.44l-23.21,3.43v-136.87Zm-70.33-261.12h53.4v12.04h-53.4v-12.04Zm0,23.04h53.4v12.04h-53.4v-12.04Zm0,23.04h53.4v12.04h-53.4v-12.04Zm0,23.04h53.4v12.04h-53.4v-12.04Zm0,23.04h53.4v12.04h-53.4v-12.04Zm0,23.04h53.4v12.04h-53.4v-12.04Zm0,23.04h53.4v12.04h-53.4v-12.04Zm0,23.04h53.4v12.04h-53.4v-12.04Zm0,23.04h53.4v12.04h-53.4v-12.04Zm0,23.04h53.4v12.04h-53.4v-12.04Zm0,23.04h53.4v12.04h-53.4v-12.04Zm0,23.04h53.4v12.04h-53.4v-12.04Zm0,23.04h53.4v12.04h-53.4v-12.04Zm0,23.04h53.4v12.04h-53.4v-12.04Zm-66.67-232.85h10.12v350.1l-10.12,1.49V272.9Zm-23.04,0h10.12v353.5l-10.12,1.49V272.9Zm-23.04,0h10.12v356.9l-10.12,1.49V272.9Zm-127.66,126.44h18.85v-20.68h46.95v20.68h18.85v238.31l-84.64,12.5v-250.81Zm-62.74-85.34h30.1v12.04h-30.1v-12.04Zm0,23.56h30.1v12.04h-30.1v-12.04Zm0,23.56h30.1v12.04h-30.1v-12.04Zm0,23.56h30.1v12.04h-30.1v-12.04Zm0,23.56h30.1v12.04h-30.1v-12.04Zm0,23.56h30.1v12.04h-30.1v-12.04Zm0,23.56h30.1v12.04h-30.1v-12.04Zm0,23.56h30.1v12.04h-30.1v-12.04Zm0,23.56h30.1v12.04h-30.1v-12.04Zm0,23.56h30.1v12.04h-30.1v-12.04Zm0,23.56h30.1v12.04h-30.1v-12.04Zm0,23.56h30.1v12.04h-30.1v-12.04Zm-55.85-132.98h29.67v223.1l-29.67,4.38v-227.48Zm-67.94,117.7c12.84-30.36,29.16-58.78,48.74-84.97v197.58l-79.32,11.71c3.55-42.91,13.78-84.6,30.58-124.32Z"/><path class="cls-1" d="M852.53,849.77l-25.01,3.69-29.44,4.35-28.36,4.19-31.3,4.62-486.84,71.88-31.21,4.61-28.38,4.19-29.46,4.35-25.48,3.76-28.1,4.15L0,975.64v19.45l121.57-17.95c79.03,104.66,204.47,172.32,345.72,172.32,186.53,0,345.5-117.96,406.4-283.36l60.88-8.99v-19.45l-53.92,7.96-28.12,4.15Zm-615.35,110.3c62.54,58.87,143.84,91.17,230.11,91.17s174.14-34.95,237.6-98.42c21.11-21.11,39.05-44.55,53.61-69.72l29.74-4.39c-59.68,116.69-181.14,196.75-320.95,196.75-102.01,0-194.25-42.63-259.85-111l29.75-4.39Zm488.1-72.06c-55.81,83.06-150.62,137.83-257.99,137.83-74.72,0-143.36-26.53-197.01-70.65l455-67.18Zm117.54-12.88c-20.53,48.53-49.91,92.11-87.35,129.55-37.44,37.44-81.02,66.83-129.55,87.35-50.23,21.24-103.6,32.02-158.63,32.02s-108.4-10.77-158.63-32.02c-48.53-20.53-92.11-49.91-129.55-87.35-10.15-10.15-19.69-20.77-28.65-31.81l26.42-3.9c5.67,6.47,11.56,12.8,17.71,18.95,72.84,72.84,169.68,112.95,272.69,112.95s199.85-40.11,272.69-112.95c33.42-33.42,59.93-71.91,78.86-113.72l25.92-3.83c-.65,1.59-1.28,3.18-1.94,4.76Z"/></g></g></svg>